<svg id="Capa_1" enable-background="new 0 0 512 512" height="512" viewBox="0 0 512 512" width="512" xmlns="http://www.w3.org/2000/svg"><g><g><g><path d="m264.366 502.404 200.906-115.993c5.17-2.985 8.355-8.501 8.355-14.471v-231.8c0-2.985-.796-5.856-2.239-8.355l-430.748-.087c-1.446 2.501-2.244 5.376-2.244 8.364v231.878c0 5.97 3.185 11.486 8.355 14.471l200.906 115.993c5.169 2.984 11.539 2.984 16.709 0z" fill="#fba615"/></g><g><path d="m473.626 140.14c0-3.02-.818-5.923-2.293-8.442l-215.37 124.344v248.599c2.901.008 5.803-.736 8.402-2.237l200.906-115.993c5.17-2.985 8.355-8.501 8.355-14.471z" fill="#f88604"/></g><g><path d="m471.333 131.699-31.28 18.06v200.435c0 5.97-3.185 11.486-8.355 14.471l-175.734 101.459v38.516c2.901.008 5.803-.737 8.402-2.237l200.905-115.993c5.17-2.985 8.355-8.501 8.355-14.471v-231.8c0-3.019-.818-5.922-2.293-8.44z" fill="#f16600"/></g><g><g><path d="m41.835 382.094c-.584-.764-1.074-1.59-1.518-2.441.444.851.934 1.677 1.518 2.441z" fill="#b1abb5"/></g><g><path d="m255.987 256.029 215.346-124.33c-1.44-2.46-3.508-4.555-6.062-6.03l-200.881-115.979c-5.168-2.984-11.535-2.985-16.704-.003l-200.93 115.901c-2.584 1.491-4.673 3.614-6.116 6.11z" fill="#fdd8a3"/></g><g><path d="m39.153 376.823c-.267-.87-.488-1.756-.61-2.67.121.913.343 1.799.61 2.67z" fill="#b1abb5"/></g></g></g><path d="m481.089 140.14c-.023-2.743-.807-8.415-3.315-12.212-2.116-3.615-5.149-6.63-8.771-8.722l-200.882-115.978c-7.451-4.302-16.71-4.305-24.163-.005l-143.37 82.699c-3.571 2.059-4.795 6.622-2.736 10.193 2.061 3.57 6.627 4.796 10.193 2.735l2.736-1.578 59.105 34.14-57.395 33.152-59.159-34.155 24.973-14.405c3.57-2.059 4.795-6.622 2.736-10.193-2.06-3.571-6.627-4.796-10.193-2.735l-27.823 16.048c-3.638 2.1-6.674 5.125-8.79 8.751-.018.03-.039.057-.057.088-2.123 3.672-3.245 7.857-3.245 12.1v231.877c-.384 5.904 4.195 17.009 12.085 20.934l71.992 41.564c2.368 1.586 7.667 1.298 10.193-2.731 2.061-3.569.838-8.133-2.731-10.194l-4.077-2.354v-67.107l57.614 33.279v67.092l-21.307-12.302c-3.571-2.062-8.134-.838-10.193 2.731-2.061 3.569-.838 8.133 2.731 10.194l96.683 55.82c4.762 2.98 16.03 5.229 24.173 0l200.905-115.993c2.055-1.187 3.887-2.664 5.475-4.35 4.172-4.429 6.612-10.348 6.612-16.583v-231.8zm-93.502-50.706-57.755 33.36-57.594-33.267 57.742-33.352zm71.013 40.999-57.785 33.362-56.064-32.383 57.759-33.362zm-130.075 121.339c-4.122 0-7.462 3.341-7.462 7.462v33.655l-57.638 33.293v-65.831l130.177-75.158v65.796l-57.614 33.279v-25.035c0-4.12-3.341-7.461-7.463-7.461zm80.001-75.196 57.637-33.277v65.777l-57.637 33.292zm-145.101 166.841 57.638-33.293v66.535l-57.638 33.293zm0 83.77 57.638-33.293v67.158l-57.638 33.277zm72.563-41.913 57.614-33.279v67.177l-57.614 33.264zm0-17.235v-66.535l57.614-33.279v66.535zm72.538-108.435 57.637-33.292v66.535l-57.637 33.292zm-93.614-128.192-57.594 33.267-57.594-33.267 57.594-33.267zm14.92 8.618 56.06 32.381-57.607 33.259-56.047-32.374zm-16.47 74.256-57.375 33.126-56.044-32.357 57.375-33.141zm-122.427 12.801 57.566 33.236v65.875l-57.566-33.251zm-14.924 57.239-57.614-33.279v-65.84l57.614 33.264zm72.49 59.107v66.534l-57.566-33.251v-66.534zm213.039 36.515-53.014 30.608v-67.181l57.637-33.292v61.857c-.369 2.275-.725 5.482-4.623 8.008zm-210.124-363.797c2.851-1.645 6.392-1.643 9.243.002l54.397 31.406-57.738 33.35-59.045-34.105zm-125.706 72.509 57.634-33.244 59.055 34.111-57.594 33.267zm59.095 51.369 57.594 33.267-57.378 33.143-57.607-33.26zm-81.333 36.561v65.836l-57.614-33.279v-65.821zm-57.614 49.793 57.614 33.279v66.534l-57.614-33.279zm57.614 184.159-52.99-30.594c-1.379-1.474-3.994-1.7-4.623-8.009v-61.787l57.614 33.279v67.111zm14.924-75.725v-66.534l57.614 33.279v66.534zm72.539 59.134 57.566 33.251v67.073l-57.566-33.236z"/></g></svg>