<svg id="Capa_1" enable-background="new 0 0 512 512" height="512" viewBox="0 0 512 512" width="512" xmlns="http://www.w3.org/2000/svg"><g><g><path d="m353.552 460.59h.01z" fill="#0acefa"/></g><g><path d="m247.613 13.701c-28.616 46.743-93.638 85.438-178.382 107.687-4.117 1.081-7.113 4.662-7.401 8.909-.577 8.499-.876 17.412-.876 26.775 0 140.751 148.124 302.975 185.738 341.899 4.706 4.87 12.5 4.87 17.206 0 37.613-38.925 185.738-201.148 185.738-341.899 0-9.363-.3-18.276-.877-26.775-.288-4.247-3.284-7.828-7.401-8.909-84.745-22.25-149.766-60.945-178.382-107.687-3.532-5.767-11.832-5.767-15.363 0z" fill="#b1abb5"/></g><g><g><path d="m448.757 130.297c-.288-4.247-3.284-7.828-7.401-8.909-12.155-3.191-23.888-6.731-35.182-10.574.006.943.023 1.87.023 2.822 0 140.751-148.124 302.975-185.737 341.899-2.709 2.803-6.439 3.983-10.016 3.56 15.39 17.887 28.294 31.647 36.247 39.877 4.706 4.87 12.5 4.87 17.206 0 37.613-38.925 185.738-201.148 185.738-341.899-.001-9.364-.301-18.277-.878-26.776z" fill="#786e79"/></g></g><g><g><g><g><path d="m305.579 325.058h-100.57c-10.217 0-18.5-8.283-18.5-18.5v-60.25c0-10.217 8.283-18.5 18.5-18.5h100.57c10.217 0 18.5 8.283 18.5 18.5v60.25c0 10.217-8.283 18.5-18.5 18.5z" fill="#dcf5ff"/></g></g><g><path d="m305.633 227.808h-4.064v56.295c0 10.187-8.258 18.445-18.445 18.445h-96.615v4.064c0 10.187 8.258 18.445 18.445 18.445h100.68c10.187 0 18.445-8.258 18.445-18.445v-60.36c0-10.186-8.259-18.444-18.446-18.444z" fill="#97e4f9"/></g></g></g><g><circle cx="21.793" cy="329.704" fill="#09a6ee" r="14.315"/></g><g><circle cx="21.793" cy="386.604" fill="#09a6ee" r="14.315"/></g><g><circle cx="490.207" cy="329.704" fill="#09a6ee" r="14.315"/></g><g><circle cx="83.579" cy="419.598" fill="#09a6ee" r="14.315"/></g><g><circle cx="427.293" cy="419.598" fill="#09a6ee" r="14.315"/></g><g><circle cx="407.626" cy="472.292" fill="#09a6ee" r="14.315"/></g><g><circle cx="102.961" cy="472.292" fill="#09a6ee" r="14.315"/></g><g><circle cx="490.207" cy="386.604" fill="#09a6ee" r="14.315"/></g><g><path d="m146.417 102.357c50.331-22.704 87.53-52.011 107.574-84.751.306-.499.744-.752 1.303-.752s.997.253 1.303.752c14.811 24.191 38.586 46.239 70.667 65.532 31.384 18.875 69.133 34.178 112.194 45.483 1.03.271 1.768 1.148 1.839 2.184.571 8.401.86 17.238.86 26.268 0 33.483-8.8 71.044-26.156 111.641-1.623 3.797.139 8.191 3.937 9.816 2.688 1.064 7.524.659 9.816-3.937 18.154-42.466 27.359-82.005 27.359-117.52 0-9.366-.301-18.545-.895-27.281-.505-7.45-5.714-13.734-12.962-15.635-83.305-21.873-146.69-59.91-173.905-104.36-3.028-4.946-8.283-7.898-14.058-7.898s-11.03 2.952-14.058 7.898c-18.471 30.17-53.385 57.462-100.969 78.927-3.764 1.698-5.44 6.127-3.742 9.892 1.699 3.762 6.129 5.436 9.893 3.741z"/><path d="m331.556 306.612v-60.36c0-13.546-10.445-24.691-23.704-25.822v-11.46c0-28.981-23.577-52.559-52.559-52.559s-52.559 23.577-52.559 52.559v11.461c-13.259 1.13-23.704 12.275-23.704 25.822v60.36c0 14.294 11.629 25.923 25.923 25.923h100.68c14.295-.001 25.923-11.629 25.923-25.924zm-76.262-135.245c20.734 0 37.603 16.869 37.603 37.603v11.36h-75.207v-11.36c0-20.735 16.869-37.603 37.604-37.603zm-61.308 135.245v-60.36c0-6.047 4.92-10.967 10.967-10.967h100.68c6.047 0 10.967 4.92 10.967 10.967v60.36c0 6.047-4.92 10.967-10.967 10.967h-100.68c-6.047.001-10.967-4.919-10.967-10.967z"/><path d="m254.724 257.522c-7.571.479-13.757 6.58-14.332 14.144-.513 6.756 3.344 12.673 9.037 15.232v9.635c0 1.807 1.464 3.271 3.271 3.271h6.049c1.807 0 3.271-1.464 3.271-3.271v-9.635c5.353-2.406 9.083-7.781 9.083-14.03 0-8.824-7.432-15.912-16.379-15.346z"/><path d="m490.206 364.811c-8.624 0-16.093 5.036-19.624 12.322h-97.984c4.34-6.418 8.641-12.977 12.871-19.661h51.009c3.595 0 6.974-1.4 9.518-3.942l15.237-15.238h8.946c3.339 7.759 11.058 13.207 20.027 13.207 12.017 0 21.794-9.777 21.794-21.794 0-12.016-9.777-21.793-21.794-21.793-9.801 0-18.11 6.505-20.841 15.424h-8.751c-3.596 0-6.975 1.4-9.518 3.941l-15.238 15.239h-41.177c6.847-11.43 13.431-23.166 19.593-35.131 1.891-3.672.447-8.181-3.225-10.072-3.672-1.89-8.18-.447-10.072 3.225-46.868 91.01-120.889 170.915-142.459 193.238-.854.884-2 1.371-3.226 1.371s-2.372-.487-3.226-1.371c-18.059-18.689-64.55-68.932-106.117-131.697-51.439-77.672-77.521-146.646-77.521-205.006 0-9.03.289-17.867.86-26.271.07-1.034.809-1.91 1.839-2.181 13.93-3.657 27.54-7.816 40.451-12.358 3.896-1.371 5.942-5.64 4.572-9.536-1.372-3.896-5.642-5.941-9.536-4.572-12.529 4.409-25.747 8.447-39.285 12.001-7.25 1.903-12.459 8.187-12.962 15.634-.594 8.738-.895 17.917-.895 27.282 0 54.162 20.995 116.436 62.442 185.443h-41.186l-15.238-15.238c-2.542-2.541-5.922-3.941-9.518-3.941h-7.338c-2.731-8.919-11.04-15.424-20.841-15.424-12.016-.001-21.793 9.776-21.793 21.792 0 12.017 9.777 21.794 21.794 21.794 8.968 0 16.687-5.448 20.027-13.207h7.533l15.237 15.238c2.543 2.542 5.923 3.942 9.518 3.942h51.045c2.706 4.265 5.472 8.551 8.329 12.865 1.512 2.284 3.033 4.546 4.556 6.796h-96.621c-3.531-7.286-11-12.322-19.624-12.322-12.017.001-21.794 9.777-21.794 21.794 0 12.016 9.777 21.793 21.794 21.793 10.123 0 18.655-6.939 21.093-16.309h105.522c4.881 6.882 9.772 13.566 14.629 20.032h-58.988c-3.058-8.345-11.08-14.316-20.471-14.316-12.017 0-21.794 9.777-21.794 21.794s9.777 21.794 21.794 21.794c9.391 0 17.413-5.971 20.471-14.316h70.453c5.062 6.471 10.04 12.672 14.872 18.558h-32.34c-3.594 0-6.973 1.399-9.519 3.942l-15.237 15.238h-8.848c-3.058-8.345-11.08-14.316-20.472-14.316-12.017 0-21.794 9.777-21.794 21.794 0 12.016 9.777 21.793 21.794 21.793 9.391 0 17.414-5.971 20.472-14.315h9.467c3.593 0 6.972-1.399 9.519-3.943l15.236-15.237h44.238c16.949 19.874 31.136 35.004 39.421 43.579 3.699 3.827 8.664 5.934 13.981 5.934s10.282-2.107 13.981-5.934c9.322-9.647 23.299-24.614 39.51-43.599.135.007.268.02.405.02h43.744l15.239 15.24c2.543 2.541 5.923 3.94 9.516 3.94h9.467c3.058 8.344 11.081 14.315 20.472 14.315 12.017 0 21.794-9.777 21.794-21.793 0-12.017-9.777-21.794-21.794-21.794-9.391 0-17.414 5.971-20.472 14.316h-8.848l-15.24-15.241c-2.542-2.54-5.922-3.939-9.516-3.939h-32.259c4.848-5.901 9.824-12.097 14.878-18.558h70.651c3.058 8.345 11.08 14.316 20.471 14.316 12.017 0 21.794-9.777 21.794-21.794s-9.777-21.794-21.794-21.794c-9.391 0-17.413 5.971-20.471 14.316h-59.187c4.854-6.467 9.739-13.155 14.611-20.032h106.868c2.438 9.37 10.97 16.309 21.093 16.309 12.017 0 21.794-9.777 21.794-21.793 0-12.017-9.777-21.793-21.794-21.793zm0-41.944c3.77 0 6.838 3.067 6.838 6.837s-3.068 6.838-6.838 6.838-6.837-3.068-6.837-6.838 3.067-6.837 6.837-6.837zm-468.412 13.675c-3.771 0-6.838-3.068-6.838-6.838s3.067-6.837 6.838-6.837c3.77 0 6.837 3.067 6.837 6.837s-3.067 6.838-6.837 6.838zm0 56.899c-3.771 0-6.838-3.067-6.838-6.837 0-3.771 3.067-6.838 6.838-6.838 3.77 0 6.837 3.067 6.837 6.838 0 3.77-3.067 6.837-6.837 6.837zm61.785 32.995c-3.771 0-6.838-3.067-6.838-6.838s3.067-6.838 6.838-6.838c3.77 0 6.837 3.067 6.837 6.838s-3.067 6.838-6.837 6.838zm19.382 52.693c-3.771 0-6.838-3.067-6.838-6.837s3.067-6.838 6.838-6.838 6.838 3.068 6.838 6.838-3.067 6.837-6.838 6.837zm304.665-13.675c3.771 0 6.838 3.068 6.838 6.838s-3.067 6.837-6.838 6.837-6.838-3.067-6.838-6.837 3.067-6.838 6.838-6.838zm19.667-52.694c3.771 0 6.838 3.067 6.838 6.838s-3.067 6.838-6.838 6.838c-3.77 0-6.837-3.067-6.837-6.838s3.067-6.838 6.837-6.838zm62.913-19.319c-3.77 0-6.837-3.067-6.837-6.837 0-3.771 3.067-6.838 6.837-6.838s6.838 3.067 6.838 6.838c0 3.77-3.068 6.837-6.838 6.837z"/><ellipse cx="254.662" cy="438.796" rx="14.316" ry="14.316" transform="matrix(.383 -.924 .924 .383 -248.188 506.154)"/><ellipse cx="254.662" cy="75.072" rx="14.316" ry="14.315" transform="matrix(.987 -.16 .16 .987 -8.737 41.762)"/><path d="m106.054 145.777c-7.906 0-14.315 6.409-14.315 14.316 0 7.906 6.409 14.315 14.315 14.315s14.316-6.409 14.316-14.315c-.001-7.906-6.41-14.316-14.316-14.316z"/><path d="m404.534 145.777c-7.906 0-14.316 6.409-14.316 14.316 0 7.906 6.409 14.315 14.316 14.315 7.906 0 14.315-6.409 14.315-14.315s-6.409-14.316-14.315-14.316z"/></g></g></svg>